<svg width="43" height="48" viewBox="0 0 43 48" fill="none" xmlns="http://www.w3.org/2000/svg">
<g filter="url(#filter0_d_7637_8331)">
<path d="M36.8335 13.3852L23.8335 1.9885C22.6418 0.922597 21.0991 0.333313 19.5002 0.333313C17.9014 0.333313 16.3586 0.922597 15.1669 1.9885L2.16687 13.3852C1.47867 14.0007 0.929489 14.7557 0.555894 15.6C0.1823 16.4444 -0.00713388 17.3586 0.000205387 18.2818V37.2185C0.000205387 38.9424 0.685025 40.5957 1.90401 41.8147C3.123 43.0337 4.7763 43.7185 6.50021 43.7185H32.5002C34.2241 43.7185 35.8774 43.0337 37.0964 41.8147C38.3154 40.5957 39.0002 38.9424 39.0002 37.2185V18.2602C39.0045 17.3406 38.8135 16.4305 38.4401 15.5901C38.0666 14.7498 37.519 13.9982 36.8335 13.3852V13.3852ZM23.8335 39.3852H15.1669V28.5518C15.1669 27.9772 15.3951 27.4261 15.8015 27.0198C16.2078 26.6134 16.7589 26.3852 17.3335 26.3852H21.6669C22.2415 26.3852 22.7926 26.6134 23.1989 27.0198C23.6053 27.4261 23.8335 27.9772 23.8335 28.5518V39.3852ZM34.6669 37.2185C34.6669 37.7931 34.4386 38.3442 34.0323 38.7506C33.6259 39.1569 33.0748 39.3852 32.5002 39.3852H28.1669V28.5518C28.1669 26.8279 27.4821 25.1746 26.2631 23.9556C25.0441 22.7367 23.3908 22.0518 21.6669 22.0518H17.3335C15.6096 22.0518 13.9563 22.7367 12.7373 23.9556C11.5184 25.1746 10.8335 26.8279 10.8335 28.5518V39.3852H6.50021C5.92557 39.3852 5.37447 39.1569 4.96814 38.7506C4.56181 38.3442 4.33354 37.7931 4.33354 37.2185V18.2602C4.33393 17.9525 4.39982 17.6485 4.52684 17.3683C4.65386 17.0881 4.83909 16.8382 5.07021 16.6352L18.0702 5.26017C18.4656 4.91281 18.9739 4.72124 19.5002 4.72124C20.0265 4.72124 20.5348 4.91281 20.9302 5.26017L33.9302 16.6352C34.1613 16.8382 34.3465 17.0881 34.4736 17.3683C34.6006 17.6485 34.6665 17.9525 34.6669 18.2602V37.2185Z" fill="#1B1B1B"/>
<path d="M23.5002 2.36118L23.5002 2.3612L23.5039 2.36448L36.5002 13.7578C36.5008 13.7584 36.5015 13.759 36.5021 13.7595C37.134 14.3251 37.6387 15.0183 37.9831 15.7932C38.3279 16.5689 38.5041 17.409 38.5002 18.2578V18.2602V37.2185C38.5002 38.8098 37.8681 40.3359 36.7429 41.4611C35.6176 42.5864 34.0915 43.2185 32.5002 43.2185H6.50021C4.90891 43.2185 3.38278 42.5864 2.25757 41.4611C1.13235 40.3359 0.500205 38.8098 0.500205 37.2185L0.500221 18.2818L0.50019 18.2779C0.493415 17.4256 0.668277 16.5817 1.01313 15.8023C1.35766 15.0237 1.86397 14.3273 2.49839 13.7595L15.4965 2.36448L15.4965 2.3645L15.5002 2.36118C16.6003 1.37727 18.0243 0.833313 19.5002 0.833313C20.9761 0.833313 22.4002 1.37727 23.5002 2.36118ZM23.8335 39.8852H24.3335V39.3852V28.5518C24.3335 27.8446 24.0526 27.1663 23.5525 26.6662C23.0524 26.1661 22.3741 25.8852 21.6669 25.8852H17.3335C16.6263 25.8852 15.948 26.1661 15.4479 26.6662C14.9478 27.1663 14.6669 27.8446 14.6669 28.5518V39.3852V39.8852H15.1669H23.8335ZM27.6669 39.3852V39.8852H28.1669H32.5002C33.2074 39.8852 33.8857 39.6042 34.3858 39.1041C34.8859 38.604 35.1669 37.9257 35.1669 37.2185V18.2602V18.2595C35.1664 17.8809 35.0853 17.5067 34.929 17.1619C34.7726 16.817 34.5447 16.5094 34.2602 16.2595L34.2595 16.2589L21.2602 4.88453C21.2601 4.88441 21.2599 4.88428 21.2598 4.88416C20.7732 4.45688 20.1478 4.22124 19.5002 4.22124C18.8526 4.22124 18.2272 4.45688 17.7406 4.88416C17.7405 4.88428 17.7403 4.88441 17.7402 4.88453L4.74095 16.2589L4.74021 16.2595C4.45576 16.5094 4.22778 16.817 4.07145 17.1619C3.91512 17.5067 3.83402 17.8809 3.83354 18.2595V18.2602V37.2185C3.83354 37.9257 4.11449 38.604 4.61459 39.1041C5.11469 39.6042 5.79296 39.8852 6.50021 39.8852H10.8335H11.3335V39.3852V28.5518C11.3335 26.9605 11.9657 25.4344 13.0909 24.3092C14.2161 23.184 15.7422 22.5518 17.3335 22.5518H21.6669C23.2582 22.5518 24.7843 23.184 25.9095 24.3092C27.0347 25.4344 27.6669 26.9605 27.6669 28.5518V39.3852Z" stroke="black"/>
<path d="M23.5002 2.36118L23.5002 2.3612L23.5039 2.36448L36.5002 13.7578C36.5008 13.7584 36.5015 13.759 36.5021 13.7595C37.134 14.3251 37.6387 15.0183 37.9831 15.7932C38.3279 16.5689 38.5041 17.409 38.5002 18.2578V18.2602V37.2185C38.5002 38.8098 37.8681 40.3359 36.7429 41.4611C35.6176 42.5864 34.0915 43.2185 32.5002 43.2185H6.50021C4.90891 43.2185 3.38278 42.5864 2.25757 41.4611C1.13235 40.3359 0.500205 38.8098 0.500205 37.2185L0.500221 18.2818L0.50019 18.2779C0.493415 17.4256 0.668277 16.5817 1.01313 15.8023C1.35766 15.0237 1.86397 14.3273 2.49839 13.7595L15.4965 2.36448L15.4965 2.3645L15.5002 2.36118C16.6003 1.37727 18.0243 0.833313 19.5002 0.833313C20.9761 0.833313 22.4002 1.37727 23.5002 2.36118ZM23.8335 39.8852H24.3335V39.3852V28.5518C24.3335 27.8446 24.0526 27.1663 23.5525 26.6662C23.0524 26.1661 22.3741 25.8852 21.6669 25.8852H17.3335C16.6263 25.8852 15.948 26.1661 15.4479 26.6662C14.9478 27.1663 14.6669 27.8446 14.6669 28.5518V39.3852V39.8852H15.1669H23.8335ZM27.6669 39.3852V39.8852H28.1669H32.5002C33.2074 39.8852 33.8857 39.6042 34.3858 39.1041C34.8859 38.604 35.1669 37.9257 35.1669 37.2185V18.2602V18.2595C35.1664 17.8809 35.0853 17.5067 34.929 17.1619C34.7726 16.817 34.5447 16.5094 34.2602 16.2595L34.2595 16.2589L21.2602 4.88453C21.2601 4.88441 21.2599 4.88428 21.2598 4.88416C20.7732 4.45688 20.1478 4.22124 19.5002 4.22124C18.8526 4.22124 18.2272 4.45688 17.7406 4.88416C17.7405 4.88428 17.7403 4.88441 17.7402 4.88453L4.74095 16.2589L4.74021 16.2595C4.45576 16.5094 4.22778 16.817 4.07145 17.1619C3.91512 17.5067 3.83402 17.8809 3.83354 18.2595V18.2602V37.2185C3.83354 37.9257 4.11449 38.604 4.61459 39.1041C5.11469 39.6042 5.79296 39.8852 6.50021 39.8852H10.8335H11.3335V39.3852V28.5518C11.3335 26.9605 11.9657 25.4344 13.0909 24.3092C14.2161 23.184 15.7422 22.5518 17.3335 22.5518H21.6669C23.2582 22.5518 24.7843 23.184 25.9095 24.3092C27.0347 25.4344 27.6669 26.9605 27.6669 28.5518V39.3852Z" stroke="black" stroke-opacity="0.2"/>
<path d="M23.5002 2.36118L23.5002 2.3612L23.5039 2.36448L36.5002 13.7578C36.5008 13.7584 36.5015 13.759 36.5021 13.7595C37.134 14.3251 37.6387 15.0183 37.9831 15.7932C38.3279 16.5689 38.5041 17.409 38.5002 18.2578V18.2602V37.2185C38.5002 38.8098 37.8681 40.3359 36.7429 41.4611C35.6176 42.5864 34.0915 43.2185 32.5002 43.2185H6.50021C4.90891 43.2185 3.38278 42.5864 2.25757 41.4611C1.13235 40.3359 0.500205 38.8098 0.500205 37.2185L0.500221 18.2818L0.50019 18.2779C0.493415 17.4256 0.668277 16.5817 1.01313 15.8023C1.35766 15.0237 1.86397 14.3273 2.49839 13.7595L15.4965 2.36448L15.4965 2.3645L15.5002 2.36118C16.6003 1.37727 18.0243 0.833313 19.5002 0.833313C20.9761 0.833313 22.4002 1.37727 23.5002 2.36118ZM23.8335 39.8852H24.3335V39.3852V28.5518C24.3335 27.8446 24.0526 27.1663 23.5525 26.6662C23.0524 26.1661 22.3741 25.8852 21.6669 25.8852H17.3335C16.6263 25.8852 15.948 26.1661 15.4479 26.6662C14.9478 27.1663 14.6669 27.8446 14.6669 28.5518V39.3852V39.8852H15.1669H23.8335ZM27.6669 39.3852V39.8852H28.1669H32.5002C33.2074 39.8852 33.8857 39.6042 34.3858 39.1041C34.8859 38.604 35.1669 37.9257 35.1669 37.2185V18.2602V18.2595C35.1664 17.8809 35.0853 17.5067 34.929 17.1619C34.7726 16.817 34.5447 16.5094 34.2602 16.2595L34.2595 16.2589L21.2602 4.88453C21.2601 4.88441 21.2599 4.88428 21.2598 4.88416C20.7732 4.45688 20.1478 4.22124 19.5002 4.22124C18.8526 4.22124 18.2272 4.45688 17.7406 4.88416C17.7405 4.88428 17.7403 4.88441 17.7402 4.88453L4.74095 16.2589L4.74021 16.2595C4.45576 16.5094 4.22778 16.817 4.07145 17.1619C3.91512 17.5067 3.83402 17.8809 3.83354 18.2595V18.2602V37.2185C3.83354 37.9257 4.11449 38.604 4.61459 39.1041C5.11469 39.6042 5.79296 39.8852 6.50021 39.8852H10.8335H11.3335V39.3852V28.5518C11.3335 26.9605 11.9657 25.4344 13.0909 24.3092C14.2161 23.184 15.7422 22.5518 17.3335 22.5518H21.6669C23.2582 22.5518 24.7843 23.184 25.9095 24.3092C27.0347 25.4344 27.6669 26.9605 27.6669 28.5518V39.3852Z" stroke="black" stroke-opacity="0.2"/>
</g>
<defs>
<filter id="filter0_d_7637_8331" x="-4" y="0.333313" width="47.0005" height="51.3852" filterUnits="userSpaceOnUse" color-interpolation-filters="sRGB">
<feFlood flood-opacity="0" result="BackgroundImageFix"/>
<feColorMatrix in="SourceAlpha" type="matrix" values="0 0 0 0 0 0 0 0 0 0 0 0 0 0 0 0 0 0 127 0" result="hardAlpha"/>
<feOffset dy="4"/>
<feGaussianBlur stdDeviation="2"/>
<feComposite in2="hardAlpha" operator="out"/>
<feColorMatrix type="matrix" values="0 0 0 0 0 0 0 0 0 0 0 0 0 0 0 0 0 0 0.25 0"/>
<feBlend mode="normal" in2="BackgroundImageFix" result="effect1_dropShadow_7637_8331"/>
<feBlend mode="normal" in="SourceGraphic" in2="effect1_dropShadow_7637_8331" result="shape"/>
</filter>
</defs>
</svg>
