<svg width="25" height="24" viewBox="0 0 25 24" fill="none" xmlns="http://www.w3.org/2000/svg">
<g id="VoteButton">
<path id="Vector" d="M21.5 12C21.2348 12 20.9804 12.1054 20.7929 12.2929C20.6054 12.4804 20.5 12.7348 20.5 13V19C20.5 19.2652 20.3946 19.5196 20.2071 19.7071C20.0196 19.8946 19.7652 20 19.5 20H5.5C5.23478 20 4.98043 19.8946 4.79289 19.7071C4.60536 19.5196 4.5 19.2652 4.5 19V5C4.5 4.73478 4.60536 4.48043 4.79289 4.29289C4.98043 4.10536 5.23478 4 5.5 4H11.5C11.7652 4 12.0196 3.89464 12.2071 3.70711C12.3946 3.51957 12.5 3.26522 12.5 3C12.5 2.73478 12.3946 2.48043 12.2071 2.29289C12.0196 2.10536 11.7652 2 11.5 2H5.5C4.70435 2 3.94129 2.31607 3.37868 2.87868C2.81607 3.44129 2.5 4.20435 2.5 5V19C2.5 19.7956 2.81607 20.5587 3.37868 21.1213C3.94129 21.6839 4.70435 22 5.5 22H19.5C20.2956 22 21.0587 21.6839 21.6213 21.1213C22.1839 20.5587 22.5 19.7956 22.5 19V13C22.5 12.7348 22.3946 12.4804 22.2071 12.2929C22.0196 12.1054 21.7652 12 21.5 12ZM6.5 12.76V17C6.5 17.2652 6.60536 17.5196 6.79289 17.7071C6.98043 17.8946 7.23478 18 7.5 18H11.74C11.8716 18.0008 12.0021 17.9755 12.1239 17.9258C12.2457 17.876 12.3566 17.8027 12.45 17.71L19.37 10.78L22.21 8C22.3037 7.90704 22.3781 7.79644 22.4289 7.67458C22.4797 7.55272 22.5058 7.42201 22.5058 7.29C22.5058 7.15799 22.4797 7.02728 22.4289 6.90542C22.3781 6.78356 22.3037 6.67296 22.21 6.58L17.97 2.29C17.877 2.19627 17.7664 2.12188 17.6446 2.07111C17.5227 2.02034 17.392 1.9942 17.26 1.9942C17.128 1.9942 16.9973 2.02034 16.8754 2.07111C16.7536 2.12188 16.643 2.19627 16.55 2.29L13.73 5.12L6.79 12.05C6.69732 12.1434 6.62399 12.2543 6.57423 12.3761C6.52446 12.4979 6.49924 12.6284 6.5 12.76V12.76ZM17.26 4.41L20.09 7.24L18.67 8.66L15.84 5.83L17.26 4.41ZM8.5 13.17L14.43 7.24L17.26 10.07L11.33 16H8.5V13.17Z" fill="#1B1B1B"/>
</g>
</svg>
